<svg id="图层_1" data-name="图层 1" xmlns="http://www.w3.org/2000/svg" viewBox="0 0 140 40"><defs><style>.cls-1{fill:#1bc7b1;}.cls-2{isolation:isolate;font-size:14px;font-family:PingFangSC-Regular-GBpc-EUC-H, PingFang SC;}.cls-2,.cls-3{fill:#fff;}</style></defs><title>查看地址-7</title><path class="cls-1" d="M102.23,0h-98A4.13,4.13,0,0,0,0,4V36a4.13,4.13,0,0,0,4.23,4h98l15.66-14.75H126V14.75h-8.1Z" transform="translate(0 0)"/><polygon class="cls-1" points="126 8 126 32 140 20 126 8"/><text class="cls-2" transform="translate(44.21 24.64)">查看地址</text><path class="cls-3" d="M20.26,10.32a7.2,7.2,0,0,0-7.2,7.2h0c0,5,5.33,11.2,7.2,11.2s7.2-6.12,7.2-11.2a7.2,7.2,0,0,0-7.2-7.2Zm1.7,8.9a2.4,2.4,0,1,1,0-3.39,2.37,2.37,0,0,1,.71,1.69,2.39,2.39,0,0,1-.66,1.7Z" transform="translate(0 0)"/><path class="cls-3" d="M32.71,4H7.82A3.56,3.56,0,0,0,4.26,7.56h0V32.44A3.56,3.56,0,0,0,7.82,36H32.71a3.55,3.55,0,0,0,3.55-3.55h0V7.56A3.55,3.55,0,0,0,32.72,4ZM20.26,31.12c-1.7,0-8.8-6.78-8.8-13.44a8.8,8.8,0,0,1,17.6,0C29.06,24.34,22,31.12,20.26,31.12Z" transform="translate(0 0)"/></svg>