<svg id="图层_1" data-name="图层 1" xmlns="http://www.w3.org/2000/svg" viewBox="0 0 140 40"><defs><style>.cls-1{fill:#1bc7b1;}.cls-2,.cls-3{fill:#fff;}.cls-3{isolation:isolate;font-size:14px;font-family:PingFangSC-Medium-GBpc-EUC-H, PingFang SC;}</style></defs><title>点击查看公司地址-6</title><path class="cls-1" d="M14,6H119a14,14,0,0,1,14,14h0a14,14,0,0,1-14,14H14A14,14,0,0,1,0,20H0A14,14,0,0,1,14,6Z"/><path class="cls-1" d="M120,0H29.37V4H119a16,16,0,0,1,0,32H29.37v4H120a20,20,0,0,0,0-40Z"/><path class="cls-2" d="M116.89,12.75a5.39,5.39,0,0,0-5.39,5.39c0,3.76,4,8.38,5.39,8.38s5.39-4.58,5.39-8.38A5.39,5.39,0,0,0,116.89,12.75Zm1.27,6.66a1.81,1.81,0,1,1,.52-1.27A1.8,1.8,0,0,1,118.16,19.41Z"/><path class="cls-2" d="M119,6H100.78V34H119a14,14,0,0,0,14-14h0A14,14,0,0,0,119,6Zm-2.11,22.32c-1.27,0-6.59-5.07-6.59-10.06a6.59,6.59,0,0,1,13.17,0C123.47,23.25,118.16,28.32,116.89,28.32Z"/><text class="cls-3" transform="translate(9.17 24.66)">点击查看地址</text></svg>