<svg id="图层_1" data-name="图层 1" xmlns="http://www.w3.org/2000/svg" viewBox="0 0 140 40"><defs><style>.cls-1{fill:#1bc7b1;}.cls-2{font-size:14px;fill:#fff;font-family:PingFangSC-Regular-GBpc-EUC-H, PingFang SC;}</style></defs><title>立即报名-10</title><path class="cls-1" d="M13.57,0H8A8,8,0,0,0,0,8V32a8,8,0,0,0,8,8H27.52Z"/><path class="cls-1" d="M132,0H17.81L31.75,40H132a8,8,0,0,0,8-8V8A8,8,0,0,0,132,0ZM119.06,25.48l-.1.38-1,3.7-.11.43h-3.37a2.49,2.49,0,0,1-2.5-2.5v-15a2.5,2.5,0,0,1,2.5-2.5h11.65a2.49,2.49,0,0,1,2.5,2.5V15a2.73,2.73,0,0,0-.74.56l-8.58,9.68Zm9.58,2a2.49,2.49,0,0,1-2.5,2.5h-2.09l.07,0,.26-.3,4.26-4.8Zm3.07-8.6-8.58,9.67L119.58,30l1-3.7,8.58-9.67a1,1,0,0,1,1.44-.09l1,.91a1,1,0,0,1,.34.71A1,1,0,0,1,131.71,18.89Z"/><text class="cls-2" transform="translate(42.3 24.86)">立即报名</text></svg>