<?xml version="1.0" encoding="UTF-8"?>
<svg width="139px" height="64px" viewBox="0 0 139 64" version="1.1" xmlns="http://www.w3.org/2000/svg" xmlns:xlink="http://www.w3.org/1999/xlink">
    <!-- Generator: Sketch 61.2 (89653) - https://sketch.com -->
    <title>点我哟</title>
    <desc>Created with Sketch.</desc>
    <defs>
        <polygon id="path-1" points="0.00114335884 0.374588235 138.966355 0.374588235 138.966355 60.9882353 0.00114335884 60.9882353"></polygon>
    </defs>
    <g id="组件优化" stroke="none" stroke-width="1" fill="none" fill-rule="evenodd">
        <g id="组件按钮样式" transform="translate(-256.000000, -411.000000)">
            <g id="点我哟" transform="translate(256.000000, 411.000000)">
                <g id="编组">
                    <g transform="translate(0.000000, 2.258824)">
                        <mask id="mask-2" fill="white">
                            <use xlink:href="#path-1"></use>
                        </mask>
                        <g id="Clip-2"></g>
                        <path d="M6.45390598,6.81675294 C-2.12858859,15.3272471 -2.15653967,46.1421176 6.4108462,54.6669176 C14.8845582,63.0960941 124.086433,63.0945882 132.558634,54.6669176 C141.123754,46.1421176 141.095047,15.3272471 132.515574,6.81675294 C123.849982,-1.7728 15.1164766,-1.7728 6.45390598,6.81675294" id="Fill-1" fill="#000000" mask="url(#mask-2)"></path>
                    </g>
                    <path d="M6.45390598,6.64169412 C-2.12858859,15.1521882 -2.15653967,45.9670588 6.4108462,54.4903529 C14.8845582,62.9210353 124.086433,62.9195294 132.558634,54.4903529 C141.123754,45.9670588 141.095047,15.1521882 132.515574,6.64169412 C123.849982,-1.94785882 15.1164766,-1.94785882 6.45390598,6.64169412" id="Fill-3" fill="#FFFFFF"></path>
                    <path d="M8.66702772,7.37551059 C0.895114674,15.08864 0.869429891,43.0046871 8.63152228,50.7276047 C16.3052288,58.3661929 122.660626,58.3661929 130.336598,50.7276047 C138.098691,43.0061929 138.073761,15.08864 130.299582,7.37551059 C122.446837,-0.406889412 16.5197723,-0.406889412 8.66702772,7.37551059" id="Fill-5" fill="#FEBA30"></path>
                    <path d="M130.336296,44.8917082 C122.661079,52.5280376 16.3056821,52.5280376 8.63197554,44.8917082 C5.1841712,41.4590494 3.27141033,34.04032 2.89218207,26.1796141 C2.42305707,35.9806494 4.3350625,46.4525553 8.63197554,50.7277553 C16.3056821,58.3663435 122.661079,58.3663435 130.336296,50.7277553 C134.632454,46.4525553 136.545215,35.9806494 136.071557,26.1796141 C135.696861,34.04032 133.784101,41.4590494 130.336296,44.8917082" id="Fill-7" fill="#D49000"></path>
                    <path d="M8.66702772,7.37551059 C6.33877772,9.68553412 4.70250598,13.8139106 3.76803315,18.6666165 C17.2245929,4.72515765 123.087446,2.50021647 134.508865,15.6962635 C133.541153,12.1491576 132.137555,9.19913412 130.299582,7.37551059 C122.446838,-0.408395294 16.5182614,-0.408395294 8.66702772,7.37551059" id="Fill-9" fill="#FFDF58"></path>
                    <path d="M14.8005538,5.51303529 C11.4925049,6.44743529 8.81599946,8.71830588 8.81599946,10.5840941 C8.81599946,12.4521412 11.4925049,13.2096 14.8005538,12.2752 C18.0995375,11.3415529 20.7790647,9.07143529 20.7790647,7.20414118 C20.7790647,5.3376 18.0995375,4.58014118 14.8005538,5.51303529" id="Fill-11" fill="#FFEB91"></path>
                    <path d="M24.7082321,4.18733176 C22.8460853,4.30328471 21.1629766,5.20079059 20.949944,6.19316706 C20.7301125,7.18403765 22.0657212,7.89481412 23.9278679,7.77735529 C25.7885038,7.66140235 27.4716125,6.76389647 27.6884223,5.77152 C27.9037212,4.78140235 26.5703788,4.07213176 24.7082321,4.18733176" id="Fill-13" fill="#FFEB91"></path>
                    <path d="M126.386505,40.6991059 C124.301505,41.7080471 122.789125,43.5346824 123.008957,44.7740235 C123.228788,46.0163765 125.098489,46.2046118 127.186511,45.1979294 C129.270755,44.1874824 130.781625,42.3631059 130.561793,41.1215059 C130.341962,39.8784 128.469995,39.6901647 126.386505,40.6991059" id="Fill-15" fill="#FFEB91"></path>
                    <path d="M135.822113,29.4726024 C135.125602,36.0548141 133.294428,41.9428141 130.336145,44.8920847 C122.660928,52.5276612 16.305531,52.5276612 8.63182446,44.8920847 C7.70339511,43.9682259 6.88601467,42.7567435 6.18421576,41.3261553 C4.26465598,37.4372141 3.16927554,31.9279435 2.89203098,26.1799906 C2.83763967,27.3237082 2.81573207,28.4772141 2.82555272,29.6269553 C2.83461793,28.8333553 2.85199293,28.0405082 2.89203098,27.2506729 C3.27125924,35.1121318 5.18402011,42.5301082 8.63182446,45.9612612 C16.305531,53.5983435 122.660928,53.5983435 130.336145,45.9612612 C133.784705,42.5301082 135.69671,35.1121318 136.071406,27.2506729 C136.111444,28.0405082 136.133352,28.8348612 136.142417,29.6322259 C136.152238,28.4802259 136.125797,27.3237082 136.071406,26.1799906 C136.024569,27.2890729 135.936939,28.3906259 135.822113,29.4726024" id="Fill-17" fill="#FFDF58"></path>
                    <path d="M6.41107283,53.1785035 C2.2297413,49.0215153 0.0948826087,39.55328 0.003475,29.9615624 C-0.093976087,39.9914918 2.04088261,50.1426447 6.41107283,54.4901271 C14.8847848,62.9200565 124.082127,62.9200565 132.558105,54.4901271 C136.92754,50.1426447 139.062399,39.9914918 138.964948,29.9615624 C138.872029,39.55328 136.737171,49.0215153 132.558105,53.1785035 C124.085904,61.60768 14.881763,61.60768 6.41107283,53.1785035" id="Fill-19" fill="#E6E6E6"></path>
                </g>
                <text id="点我哟！" font-family="STHeitiSC-Medium, Heiti SC" font-size="28" font-weight="bold" letter-spacing="0.0155555556" fill="#FCFCFC">
                    <tspan x="23" y="38">点我哟！</tspan>
                </text>
            </g>
        </g>
    </g>
</svg>