<svg xmlns="http://www.w3.org/2000/svg" viewBox="0 0 140 40"><defs><style>.cls-1{fill:#1bc7b1;}.cls-2,.cls-3{fill:#fff;}.cls-3{font-size:14px;font-family:PingFangSC-Regular-GBpc-EUC-H, PingFang SC;}</style></defs><title>加入购物车-3</title><g id="图层_3" data-name="图层 3"><rect class="cls-1" width="140" height="40" rx="8"/><path class="cls-2" d="M9.05,0h40a0,0,0,0,1,0,0V28a4,4,0,0,1-4,4h-32a4,4,0,0,1-4-4V0A0,0,0,0,1,9.05,0Z"/><path class="cls-1" d="M25.1,22.4a2.19,2.19,0,0,1,.88.17,2.18,2.18,0,0,1,1.22,1.19,2.38,2.38,0,0,1,.17.88,2.32,2.32,0,0,1-.17.87,2.14,2.14,0,0,1-.49.72,2.67,2.67,0,0,1-.73.49,2.2,2.2,0,0,1-.88.18,2.1,2.1,0,0,1-.88-.18,2.78,2.78,0,0,1-.72-.49,2.14,2.14,0,0,1-.49-.72,2.32,2.32,0,0,1-.17-.87,2.38,2.38,0,0,1,.17-.88A2.24,2.24,0,0,1,23.5,23a2.3,2.3,0,0,1,.72-.47,2.09,2.09,0,0,1,.88-.17Zm10.12.05a2.24,2.24,0,0,1,.89.17,2,2,0,0,1,.73.47,2.29,2.29,0,0,1,.49.72,2.15,2.15,0,0,1,.18.87,2.2,2.2,0,0,1-.18.88,2.29,2.29,0,0,1-.49.72,2.21,2.21,0,0,1-.73.48,2.09,2.09,0,0,1-.89.19,2,2,0,0,1-.87-.19,2.27,2.27,0,0,1-.72-.48,2.48,2.48,0,0,1-.49-.72,2.2,2.2,0,0,1-.18-.88,2.15,2.15,0,0,1,.18-.87,2.48,2.48,0,0,1,.49-.72,2.09,2.09,0,0,1,.72-.47,2.14,2.14,0,0,1,.87-.17ZM39.31,8.63a2.5,2.5,0,0,1,1.06.18,1.15,1.15,0,0,1,.53.45,1,1,0,0,1,.15.57,2.47,2.47,0,0,1-.08.53l-.31.9c-.15.45-.33,1-.52,1.49s-.39,1.08-.57,1.62-.33,1-.43,1.27a2.85,2.85,0,0,1-.8,1.35,1.9,1.9,0,0,1-1.19.37H24.37l.37,2.19H37c.78,0,1.17.33,1.17,1a1.55,1.55,0,0,1-.23.84,1,1,0,0,1-.92.35H24.28a1.41,1.41,0,0,1-.82-.22,1.77,1.77,0,0,1-.55-.57,3.61,3.61,0,0,1-.35-.77,6.91,6.91,0,0,1-.21-.77c0-.1-.06-.34-.13-.71s-.16-.84-.27-1.4-.22-1.18-.35-1.87l-.39-2.08c-.31-1.64-.66-3.46-1-5.48H18.34a1,1,0,0,1-.61-.18,1.68,1.68,0,0,1-.4-.44,1.81,1.81,0,0,1-.22-.54,2.78,2.78,0,0,1-.06-.54,1.06,1.06,0,0,1,.33-.8,1.23,1.23,0,0,1,.89-.32h2.45a1.69,1.69,0,0,1,.78.15,1.46,1.46,0,0,1,.47.36,1.5,1.5,0,0,1,.24.47c.05.16.09.3.12.41a5.19,5.19,0,0,1,.1.55c0,.23.06.47.1.71s.09.6.14.93Zm0,0"/><text class="cls-3" transform="translate(58 23.65)">加入购物车</text></g></svg>