<svg id="图层_1" data-name="图层 1" xmlns="http://www.w3.org/2000/svg" viewBox="0 0 140 40"><defs><style>.cls-1{fill:#fff;}.cls-2{font-size:14px;font-family:PingFangSC-Regular-GBpc-EUC-H, PingFang SC;}.cls-2,.cls-3{fill:#1bc7b1;}</style></defs><title>立即预约-9</title><polygon class="cls-1" points="140 36 10.23 36 10.23 4 122.66 4 140 36"/><text class="cls-2" transform="translate(58.19 23.65)">点击预约</text><path class="cls-3" d="M27.17,19H24.05V14.36a1,1,0,0,0-.88-1,1,1,0,0,0-.79.24,1,1,0,0,0-.33.76v6a.63.63,0,0,0,.62.63H27.2a1,1,0,0,0,.75-.34,1,1,0,0,0,.24-.79A1,1,0,0,0,27.17,19Z"/><path class="cls-3" d="M34.54,0h-23L0,20,11.51,40h23L46.05,20ZM13.08,12.2a2.71,2.71,0,0,1,4.86-1,10.32,10.32,0,0,0-2.07,1.6A10.06,10.06,0,0,0,14.19,15,2.73,2.73,0,0,1,13.08,12.2ZM30.3,28.26a1,1,0,0,1-1.42,1.42L27.16,28a8.92,8.92,0,0,1-8.21,0l-1.74,1.74a1,1,0,0,1-.71.29,1,1,0,0,1-.7-.29,1,1,0,0,1,0-1.42l1.46-1.47a8.94,8.94,0,1,1,11.6,0Zm1.63-13.35a10.32,10.32,0,0,0-3.81-3.81,2.72,2.72,0,1,1,3.81,3.81Z"/></svg>