<svg id="图层_1" data-name="图层 1" xmlns="http://www.w3.org/2000/svg" viewBox="0 0 140 40"><defs><style>.cls-1{fill:#1bc7b1;}.cls-2{isolation:isolate;font-size:14px;font-family:PingFangSC-Regular-GBpc-EUC-H, PingFang SC;}.cls-2,.cls-3{fill:#fff;}</style></defs><title>立即购买-8</title><path class="cls-1" d="M122,24.42a4,4,0,1,1,2.71-6.93L140,0H20A20,20,0,0,0,0,20H0A20,20,0,0,0,20,40H140L125.08,22.93A4,4,0,0,1,122,24.42Zm-10,0a4,4,0,1,1,4-4A4,4,0,0,1,112,24.42Z" transform="translate(0)"/><text class="cls-2" transform="translate(44.2 24.42)">立即购买</text><path class="cls-3" d="M21.29,3a17,17,0,1,0,17,17A17,17,0,0,0,21.29,3ZM19.1,28.89a1.61,1.61,0,0,1-.39.57,1.74,1.74,0,0,1-.58.39,1.69,1.69,0,0,1-.7.15,1.72,1.72,0,0,1-.72-.15,1.81,1.81,0,0,1-.57-.39,1.61,1.61,0,0,1-.39-.57,1.85,1.85,0,0,1,0-1.41,1.61,1.61,0,0,1,.39-.57,1.78,1.78,0,0,1,.57-.38,1.89,1.89,0,0,1,.72-.14,1.86,1.86,0,0,1,.7.14,1.72,1.72,0,0,1,.58.38,1.61,1.61,0,0,1,.39.57,1.85,1.85,0,0,1,0,1.41Zm8.13,0a1.61,1.61,0,0,1-.39.57,1.65,1.65,0,0,1-.58.39,1.79,1.79,0,0,1-.72.15,1.69,1.69,0,0,1-.7-.15,1.87,1.87,0,0,1-1-1,1.73,1.73,0,0,1,0-1.41,1.61,1.61,0,0,1,.39-.57,1.59,1.59,0,0,1,.57-.38,1.68,1.68,0,0,1,.7-.14,1.78,1.78,0,0,1,.72.14,1.78,1.78,0,0,1,1,.95,1.73,1.73,0,0,1,0,1.41Zm2.92-12.2-.24.72-.42,1.2c-.16.44-.31.87-.46,1.3s-.27.77-.34,1A2.18,2.18,0,0,1,28,22.05a1.52,1.52,0,0,1-.95.3H16.84l.29,1.76H27c.62,0,.94.26.94.8a1.23,1.23,0,0,1-.19.67.81.81,0,0,1-.73.28H16.76a1.18,1.18,0,0,1-.65-.17,1.49,1.49,0,0,1-.44-.46,2.5,2.5,0,0,1-.28-.62,4.14,4.14,0,0,1-.17-.62c0-.08-.05-.27-.11-.57s-.13-.67-.21-1.12-.18-.95-.28-1.5-.21-1.11-.32-1.67c-.24-1.31-.52-2.78-.84-4.39H12a.79.79,0,0,1-.49-.15,1.07,1.07,0,0,1-.32-.35A1.7,1.7,0,0,1,11,13.8a2.22,2.22,0,0,1,0-.43.83.83,0,0,1,.26-.64,1,1,0,0,1,.71-.25h2a1.42,1.42,0,0,1,.63.11,1.11,1.11,0,0,1,.37.3,1.09,1.09,0,0,1,.19.37l.1.33a4.05,4.05,0,0,1,.08.44c0,.19.05.38.08.57s.08.48.11.74H28.82a1.93,1.93,0,0,1,.85.15,1,1,0,0,1,.43.36.76.76,0,0,1,.12.46A1.67,1.67,0,0,1,30.15,16.73Z" transform="translate(0)"/></svg>