<?xml version="1.0" encoding="UTF-8"?>
<svg width="100px" height="100px" viewBox="0 0 100 100" version="1.1" xmlns="http://www.w3.org/2000/svg" xmlns:xlink="http://www.w3.org/1999/xlink">
    <!-- Generator: Sketch 52.2 (67145) - http://www.bohemiancoding.com/sketch -->
    <title>Chrome</title>
    <desc>Created with Sketch.</desc>
    <g id="chrome-浏览器弹窗提示" stroke="none" stroke-width="1" fill="none" fill-rule="evenodd">
        <g id="Chrome浏览器提示" transform="translate(-591.000000, -259.000000)">
            <g id="Group-8" transform="translate(416.000000, 193.000000)">
                <g id="Chrome" transform="translate(175.000000, 66.000000)">
                    <path d="M33.9139721,2.66117764 C39.9785429,0.539121756 46.4645709,-0.220359281 52.8706587,0.1249501 C70.297505,0.866167665 86.7687625,11.7343313 94.5301397,27.3189621 C92.9131737,27.6786427 91.2562874,27.5478044 89.6138723,27.5660679 C77.8191617,27.591517 66.0243513,27.6278443 54.2297405,27.646008 C50.0110778,26.9737525 45.5853293,27.2680639 41.6065868,28.896008 C35.6038922,31.2469062 30.7348303,36.30499 28.605489,42.3912176 C26.4762475,48.2959082 27.0176647,55.0253493 29.8699601,60.5993014 C22.6753493,47.9724551 15.2591816,35.4728543 7.97005988,22.9040918 C14.0346307,13.5147705 23.303992,6.21117764 33.9140719,2.66117764 L33.9139721,2.66117764 Z" id="Path" fill="#D94F42"></path>
                    <path d="M1.76007984,36.8716567 C3.07175649,31.9263473 5.20848303,27.2061876 7.96996008,22.903992 C15.258982,35.4726547 22.6752495,47.9723553 29.8698603,60.5992016 C32.3371257,65.2466068 36.4394212,69.0146707 41.3121756,71.0131737 C47.6346307,73.6547904 55.1562874,73.2115768 61.1118762,69.8140719 C64.051497,68.2007984 66.4969062,65.8389222 68.539022,63.2007984 C61.5951098,75.456986 54.5568862,87.6586826 47.5839321,99.8968064 C37.0319361,99.453493 26.6869261,95.4710579 18.5112774,88.7961078 C8.76956088,80.9256487 2.14181637,69.2944112 0.495808383,56.8674651 C-0.318163673,50.2070858 -0.0600798403,43.3503992 1.76027944,36.8716567 L1.76007984,36.8716567 Z" id="Path" fill="#19A05E"></path>
                    <path d="M41.6062874,28.896008 C45.5851297,27.2681637 50.0107784,26.9737525 54.2294411,27.646008 C60.6282435,28.9323353 66.442016,32.9728543 69.6759481,38.6630739 C74.1016966,46.1484032 73.6802395,56.1698603 68.5386228,63.2008982 C66.496507,65.8389222 64.0510978,68.2006986 61.111477,69.8141717 C55.1558882,73.2116766 47.6343313,73.6548902 41.3117764,71.0132735 C36.439022,69.0147705 32.3367265,65.2467066 29.8694611,60.5993014 C27.0170659,55.0252495 26.4756487,48.2959082 28.60499,42.3912176 C30.7342315,36.3048902 35.6033932,31.2469062 41.6060878,28.896008 L41.6062874,28.896008 Z M46.9369261,32.1007984 C40.2110778,33.1654691 34.3863273,38.3760479 32.5586826,44.9311377 C31.0724551,50.0653693 31.9409182,55.8501996 35.0077844,60.250499 C38.2962076,65.1304391 44.0882236,68.2189621 49.9819361,68.139022 C55.3560878,68.2153693 60.6720559,65.6790419 64.0477046,61.5076846 C66.7729541,58.2047904 68.2699601,53.9097804 68.1391218,49.6257485 C68.0992016,43.8591816 65.0323353,38.2416168 60.261477,35.0149701 C56.4279441,32.3406188 51.5335329,31.3305389 46.9370259,32.1007984 L46.9369261,32.1007984 Z" id="Shape" fill="#F2F2F2" fill-rule="nonzero"></path>
                    <path d="M54.2295409,27.646008 C66.0242515,27.6278443 77.8190619,27.591517 89.6136727,27.5660679 C91.2560878,27.5479042 92.9129741,27.6787425 94.5299401,27.3189621 C98.490519,34.9387226 100.3002,43.6193613 99.8859281,52.1911178 C99.5371257,62.8303393 95.4893214,73.2734531 88.7670659,81.5071856 C81.9794411,89.8645709 72.4448104,95.9835329 61.9655689,98.5088822 C57.2782435,99.7298403 52.4090818,100.027745 47.5836327,99.8969062 C54.5565868,87.6588822 61.5949102,75.4571856 68.5387226,63.2008982 C73.6803393,56.1698603 74.1017964,46.1483034 69.6760479,38.6630739 C66.4421158,32.9727545 60.6283433,28.9322355 54.2295409,27.646008 Z" id="Path" fill="#FDCA41"></path>
                    <path d="M46.9369261,32.1007984 C51.5335329,31.3305389 56.4279441,32.3406188 60.2613772,35.0149701 C65.0323353,38.2416168 68.0991018,43.8592814 68.139022,49.6257485 C68.2698603,53.9097804 66.7727545,58.2047904 64.0476048,61.5076846 C60.6719561,65.6790419 55.355988,68.2153693 49.9818363,68.139022 C44.0881238,68.2189621 38.2961078,65.1304391 35.0076846,60.250499 C31.9408184,55.8501996 31.0725549,50.0654691 32.5585828,44.9311377 C34.3863273,38.3760479 40.210978,33.1654691 46.9368263,32.1007984 L46.9369261,32.1007984 Z" id="Path" fill="#4B8BF5"></path>
                </g>
            </g>
        </g>
    </g>
</svg>