<?xml version="1.0" encoding="utf-8"?>
<!-- Generator: Adobe Illustrator 22.0.1, SVG Export Plug-In . SVG Version: 6.00 Build 0)  -->
<svg version="1.1" id="图层_1" xmlns="http://www.w3.org/2000/svg" xmlns:xlink="http://www.w3.org/1999/xlink" x="0px" y="0px"
	 viewBox="0 0 160 160" style="enable-background:new 0 0 160 160;" xml:space="preserve">
<style type="text/css">
	.st0{fill:transparent;}
	.st1{fill:url(#side_6_);}
	.st2{fill:url(#side_7_);}
	.st3{fill:#DEEAF4;}
	.st4{opacity:0.1337;}
	.st5{filter:url(#filter-5);}
	.st6{fill:url(#path-4_2_);}
	.st7{fill:#D2DEE9;}
	.st8{filter:url(#filter-7);}
	.st9{fill:url(#path-6_2_);}
	.st10{fill:url(#lid_2_);}
	.st11{fill:url(#path-10_2_);}
</style>
<filter  filterUnits="objectBoundingBox" height="104.6%" id="filter-7" width="103.7%" x="-1.9%" y="-1.2%">
	<feOffset  dx="0" dy="2" in="SourceAlpha" result="shadowOffsetOuter1"></feOffset>
	
		<feColorMatrix  in="shadowOffsetOuter1" type="matrix" values="0 0 0 0 0.234730576   0 0 0 0 0.347048718   0 0 0 0 0.474516369  0 0 0 1 0">
		</feColorMatrix>
</filter>
<filter  filterUnits="objectBoundingBox" height="104.7%" id="filter-5" width="102.8%" x="-1.4%" y="-1.2%">
	<feOffset  dx="0" dy="2" in="SourceAlpha" result="shadowOffsetOuter1"></feOffset>
	
		<feColorMatrix  in="shadowOffsetOuter1" type="matrix" values="0 0 0 0 0.234730576   0 0 0 0 0.347048718   0 0 0 0 0.474516369  0 0 0 1 0">
		</feColorMatrix>
</filter>
<g id="box" transform="translate(260.000000, 132.000000)">
	<rect id="Rectangle-30" x="-260" y="-132" class="st0" width="160" height="160"/>
	
		<linearGradient id="side_6_" gradientUnits="userSpaceOnUse" x1="-1154.8518" y1="483.2962" x2="-1155.2102" y2="482.9182" gradientTransform="matrix(-52.9473 0 0 -83.957 -61375.6797 40491.9609)">
		<stop  offset="0" style="stop-color:#CDD6DE"/>
		<stop  offset="1" style="stop-color:#9FACBA"/>
	</linearGradient>
	<polygon id="side" class="st1" points="-189.7,-104 -242.6,-86 -242.6,-20 -189.7,-38 	"/>
	
		<linearGradient id="side_7_" gradientUnits="userSpaceOnUse" x1="-1125.89" y1="483.3959" x2="-1125.9441" y2="483.1111" gradientTransform="matrix(70.2164 0 0 -82.1593 78907.5703 39612.8789)">
		<stop  offset="0" style="stop-color:#D8E2EA"/>
		<stop  offset="1" style="stop-color:#B0C1D0"/>
	</linearGradient>
	<polygon id="side_1_" class="st2" points="-189.9,-104 -119.7,-87.8 -119.7,-21.8 -189.9,-38.1 	"/>
	<polygon id="side_2_" class="st3" points="-242.6,-86 -172.4,-69.8 -172.4,-0.9 -242.6,-20.1 	"/>
	<g id="side_3_" class="st4">
		<g class="st5">
			<polygon id="path-4_2_" points="-242.6,-86 -172.4,-69.8 -172.4,-0.9 -242.6,-20.1 			"/>
		</g>
		<g>
			
				<linearGradient id="path-4_2_" gradientUnits="userSpaceOnUse" x1="-1126.0942" y1="482.8413" x2="-1125.9261" y2="483.242" gradientTransform="matrix(70.2164 0 0 -85.1554 78854.8438 41095.9883)">
				<stop  offset="0" style="stop-color:#FFFFFF;stop-opacity:0"/>
				<stop  offset="1" style="stop-color:#132E3C"/>
			</linearGradient>
			<polygon id="path-4_1_" class="st6" points="-242.6,-86 -172.4,-69.8 -172.4,-0.9 -242.6,-20.1 			"/>
		</g>
	</g>
	<polygon id="side_4_" class="st7" points="-119,-87.8 -172.5,-69.8 -172.5,-0.9 -119.6,-21.9 	"/>
	<g id="side_5_" transform="translate(114.261870, 87.655977) scale(-1, 1) translate(-114.261870, -87.655977) " class="st4">
		<g class="st8">
			<polygon id="path-6_2_" points="347.5,-87.8 401,-69.8 401,-0.9 348.1,-21.9 			"/>
		</g>
		<g>
			
				<linearGradient id="path-6_2_" gradientUnits="userSpaceOnUse" x1="1383.552" y1="482.9528" x2="1383.7201" y2="483.3535" gradientTransform="matrix(-53.5466 0 0 -86.9532 74452.6953 41973.2734)">
				<stop  offset="0" style="stop-color:#FFFFFF;stop-opacity:0"/>
				<stop  offset="1" style="stop-color:#132E3C"/>
			</linearGradient>
			<polygon id="path-6_1_" class="st9" points="347.5,-87.8 401,-69.8 401,-0.9 348.1,-21.9 			"/>
		</g>
	</g>
	
		<linearGradient id="lid_2_" gradientUnits="userSpaceOnUse" x1="-1150.5621" y1="479.0741" x2="-1150.8008" y2="478.5605" gradientTransform="matrix(-72.1881 0 0 -47.4875 -83201.6719 22674.543)">
		<stop  offset="0" style="stop-color:#F1F6FA"/>
		<stop  offset="1" style="stop-color:#DEEAF4"/>
	</linearGradient>
	<polygon id="lid" class="st10" points="-119.2,-87.9 -100.5,-61.8 -154.7,-40.4 -172.7,-70.2 	"/>
	<g id="lid_1_" transform="translate(0.000000, 45.377870)">
		<g id="Mask">
			
				<linearGradient id="path-10_2_" gradientUnits="userSpaceOnUse" x1="-1128.4888" y1="433.4197" x2="-1128.5536" y2="432.7151" gradientTransform="matrix(88.0878 0 0 -45.542 99193.0312 19612.4414)">
				<stop  offset="0" style="stop-color:#F1F6FA"/>
				<stop  offset="1" style="stop-color:#DEEAF4"/>
			</linearGradient>
			<polygon id="path-10_1_" class="st11" points="-242.3,-132 -260,-104.7 -191.7,-86.5 -171.9,-115.8 			"/>
		</g>
	</g>
</g>
</svg>
