<svg id="图层_1" data-name="图层 1" xmlns="http://www.w3.org/2000/svg" viewBox="0 0 140 40"><defs><style>.cls-1,.cls-3{fill:#fff;}.cls-2{fill:#50d5e2;}.cls-3{isolation:isolate;font-size:14px;font-family:PingFangSC-Regular-GBpc-EUC-H, PingFang SC;}</style></defs><title>关注公众号-1</title><g id="图层_2" data-name="图层 2"><path class="cls-1" d="M120,0H20a20,20,0,0,0,0,40H120a20,20,0,0,0,0-40Zm-1,37H21A17,17,0,0,1,21,3h98a17,17,0,0,1,0,34Z"/><path class="cls-2" d="M21,5h98a15,15,0,0,1,15,15h0a15,15,0,0,1-15,15H21A15,15,0,0,1,6,20H6A15,15,0,0,1,21,5Z"/></g><g id="图层_3" data-name="图层 3"><text class="cls-3" transform="translate(35 24.4)">关注公众号</text></g></svg>