<svg xmlns="http://www.w3.org/2000/svg" viewBox="0 0 139.71 40"><defs><style>.cls-1,.cls-3{fill:#50d5e2;}.cls-2{fill:#fff;}.cls-3{font-size:14px;font-family:PingFangSC-Regular-GBpc-EUC-H, PingFang SC;}</style></defs><title>关注公众号-2</title><g id="图层_2" data-name="图层 2"><path class="cls-1" d="M119.51,16.2a1,1,0,0,0,0-1.94,1.09,1.09,0,0,0-1.17,1A1.09,1.09,0,0,0,119.51,16.2Z" transform="translate(-0.29)"/><path class="cls-1" d="M122,19.9a.78.78,0,0,0,0,1.56.8.8,0,1,0,0-1.56Z" transform="translate(-0.29)"/><path class="cls-1" d="M114.07,14.26a1.08,1.08,0,0,0-1.17,1,1.09,1.09,0,0,0,1.17,1,1,1,0,1,0,0-1.94Z" transform="translate(-0.29)"/><path class="cls-1" d="M126.32,19.9a.78.78,0,0,0,0,1.56.89.89,0,0,0,1-.78A.89.89,0,0,0,126.32,19.9Z" transform="translate(-0.29)"/><path class="cls-1" d="M120,0H101.63V40H120a20,20,0,0,0,0-40Zm-3.41,24.18a13.42,13.42,0,0,1-2.72-.39l-2.72,1.37.78-2.34a6.39,6.39,0,0,1-3.12-5.25c0-3.7,3.51-6.62,7.78-6.62,3.83,0,7.18,2.33,7.85,5.46-.25,0-.5,0-.75,0a6.37,6.37,0,0,0-6.61,6.15,5.84,5.84,0,0,0,.24,1.63C117.08,24.17,116.84,24.18,116.59,24.18Zm11.48,2.73.58,1.94-2.13-1.17a9.54,9.54,0,0,1-2.34.39c-3.7,0-6.61-2.53-6.61-5.64s2.91-5.64,6.61-5.64c3.5,0,6.61,2.53,6.61,5.64A5.9,5.9,0,0,1,128.07,26.91Z" transform="translate(-0.29)"/></g><g id="图层_4" data-name="图层 4"><path class="cls-2" d="M20,0H98a0,0,0,0,1,0,0V40a0,0,0,0,1,0,0H20A20,20,0,0,1,0,20v0A20,20,0,0,1,20,0Z"/></g><g id="图层_3" data-name="图层 3"><text class="cls-3" transform="translate(14.14 24.41)">关注公众号</text></g></svg>