<svg xmlns="http://www.w3.org/2000/svg" viewBox="0 0 139.71 40"><defs><style>.cls-1{fill:#50d5e2;}.cls-2{font-size:14px;font-family:PingFangSC-Regular-GBpc-EUC-H, PingFang SC;}.cls-2,.cls-3{fill:#fff;}</style></defs><title>关注公众号-3</title><g id="图层_3" data-name="图层 3"><path class="cls-1" d="M20,0H133.72a6,6,0,0,1,6,6V34a6,6,0,0,1-6,6H20A20,20,0,0,1,0,20v0A20,20,0,0,1,20,0Z"/></g><g id="图层_2" data-name="图层 2"><text class="cls-2" transform="translate(44.62 24.4)">关注公众号</text><path class="cls-3" d="M127.13,25.73l5.3-5.1a.91.91,0,0,0,0-1.2l-5.3-5.2a.85.85,0,1,0-1.2,1.2l4.6,4.5-4.6,4.5a.91.91,0,0,0,0,1.2A.71.71,0,0,0,127.13,25.73Z" transform="translate(0 -0.02)"/><path class="cls-3" d="M19.7,16.32a1,1,0,0,0,0-1.94,1.09,1.09,0,0,0-1.17,1A1.09,1.09,0,0,0,19.7,16.32Z" transform="translate(0 -0.02)"/><path class="cls-3" d="M22.22,20a.78.78,0,0,0,0,1.56.8.8,0,1,0,0-1.56Z" transform="translate(0 -0.02)"/><path class="cls-3" d="M14.26,14.38a1.09,1.09,0,0,0-1.17,1,1.09,1.09,0,0,0,1.17,1,1,1,0,1,0,0-1.94Z" transform="translate(0 -0.02)"/><path class="cls-3" d="M26.49,20a.78.78,0,0,0,0,1.56.89.89,0,0,0,1-.78A.89.89,0,0,0,26.49,20Z" transform="translate(0 -0.02)"/><path class="cls-3" d="M20,2A18,18,0,1,0,38,20,18,18,0,0,0,20,2ZM16.78,24.29a13.52,13.52,0,0,1-2.72-.39l-2.71,1.36.78-2.34A6.33,6.33,0,0,1,9,17.68c0-3.69,3.5-6.6,7.76-6.6,3.82,0,7.16,2.33,7.84,5.45-.25,0-.5,0-.75,0a6.35,6.35,0,0,0-6.6,6.14,5.9,5.9,0,0,0,.24,1.63C17.27,24.28,17,24.29,16.78,24.29ZM28.24,27,28.82,29l-2.13-1.17a9.55,9.55,0,0,1-2.33.39c-3.69,0-6.6-2.52-6.6-5.63s2.91-5.63,6.6-5.63c3.49,0,6.59,2.53,6.59,5.63A5.9,5.9,0,0,1,28.24,27Z" transform="translate(0 -0.02)"/></g></svg>