<svg xmlns="http://www.w3.org/2000/svg" viewBox="0 0 140 40"><defs><style>.cls-1{fill:#50d5e2;}.cls-2{font-size:14px;fill:#fff;font-family:PingFangSC-Regular-GBpc-EUC-H, PingFang SC;}</style></defs><title>关注公众号-5</title><g id="图层_2" data-name="图层 2"><path class="cls-1" d="M16,0H124a16,16,0,0,1,16,16v7.44a0,0,0,0,1,0,0H0a0,0,0,0,1,0,0V16A16,16,0,0,1,16,0Z"/><path class="cls-1" d="M140,25.75a1.44,1.44,0,0,0,0-.31H0a6,6,0,0,0,6,6H126.4a3.82,3.82,0,0,1,.13.88c.09,3.43-4.45,7.68-4.45,7.68a53.54,53.54,0,0,0,11.74-6.31,27.51,27.51,0,0,0,3.62-3.34A6,6,0,0,0,140,25.75Z"/></g><g id="图层_3" data-name="图层 3"><text class="cls-2" transform="translate(21.1 17)">点击关注公众号</text></g></svg>