<svg xmlns="http://www.w3.org/2000/svg" viewBox="0 0 254.26 253">
    <defs>
        <style>.cls-1{fill:#1593ff;}</style>
    </defs>
    <title>download</title>
    <g id="_2" data-name="2">
        <path class="cls-1"
              d="M148.17,352.3a25.37,25.37,0,0,1-25.3-25.3V251.1c0-7.59,5.06-12.65,12.65-12.65s12.65,5.06,12.65,12.65v70.84c0,2.53,2.53,5.06,6.32,5.06h191a6,6,0,0,0,6.32-6.32V251.1c0-7.59,5.06-12.65,12.65-12.65s12.65,5.06,12.65,12.65V327a25.37,25.37,0,0,1-25.3,25.3Z"
              transform="translate(-122.87 -99.3)"/>
    </g>
    <g id="_1" data-name="1">
        <path class="cls-1"
              d="M231.66,290.32,187.38,246a12.52,12.52,0,0,1,17.71-17.71L236.72,260V112c0-7.59,5.06-12.65,12.65-12.65S262,104.36,262,112V260l31.62-31.63A12.52,12.52,0,1,1,311.35,246l-44.27,44.28a24.46,24.46,0,0,1-35.42,0Z"
              transform="translate(-122.87 -99.3)"/>
    </g>
</svg>
