<?xml version="1.0" encoding="utf-8"?>
<!-- Generator: Adobe Illustrator 23.0.1, SVG Export Plug-In . SVG Version: 6.00 Build 0)  -->
<svg version="1.1" id="图层_1" xmlns="http://www.w3.org/2000/svg" xmlns:xlink="http://www.w3.org/1999/xlink" x="0px" y="0px"
	 viewBox="0 0 16 12" style="enable-background:new 0 0 16 12;" xml:space="preserve">
<style type="text/css">
	.st0{fill-rule:evenodd;clip-rule:evenodd;fill:#666;}
	.st1{fill-rule:evenodd;clip-rule:evenodd;fill:#FFFFFF;stroke:#666;stroke-width:0.5;}
</style>
<title>Group 24</title>
<desc>Created with Sketch.</desc>
<g id="Symbols">
	<g id="片段-横板-1" transform="translate(-90.000000, -260.000000)">
		<g id="Group-24" transform="translate(90.000000, 260.000000)">
			<g id="Group-11" transform="translate(0.000000, 0.115962)">
				<g id="Group-3">
					<path id="Fill-1" class="st0" d="M1.9,1.8c-0.4,0-0.7,0.3-0.7,0.8V7c0,0.4,0.3,0.8,0.7,0.8h7.6c0.4,0,0.7-0.3,0.7-0.8V2.6
						c0-0.4-0.3-0.8-0.7-0.8H1.9z M9.5,9H1.9C0.9,9,0,8.1,0,7V2.6c0-1.1,0.9-2,1.9-2h7.6c1.1,0,1.9,0.9,1.9,2V7
						C11.5,8.1,10.6,9,9.5,9z"/>
				</g>
				<path id="Fill-6" class="st0" d="M13.9,11.1H6.3c-1.1,0-1.9-0.9-1.9-2V4.6c0-1.1,0.9-2,1.9-2h7.6c1.1,0,1.9,0.9,1.9,2v4.4
					C15.8,10.2,15,11.1,13.9,11.1z"/>
				<path id="Path" class="st1" d="M8.3,9.1C8.1,9.1,7.9,9,7.8,8.8C7.7,8.7,7.7,8.6,7.7,8.5V7.8h-3c-0.5,0-1-0.4-1-1s0.4-1,1-1h3
					V5.2c0-0.3,0.3-0.6,0.6-0.6c0.1,0,0.2,0,0.3,0.1l2.1,1.6c0.2,0.2,0.3,0.6,0.1,0.8c0,0-0.1,0.1-0.1,0.1L8.6,8.9
					C8.5,9,8.4,9.1,8.3,9.1z"/>
			</g>
		</g>
	</g>
</g>
</svg>
