<?xml version="1.0" encoding="utf-8"?>
<!-- Generator: Adobe Illustrator 23.0.1, SVG Export Plug-In . SVG Version: 6.00 Build 0)  -->
<svg version="1.1" id="图层_1" xmlns="http://www.w3.org/2000/svg" xmlns:xlink="http://www.w3.org/1999/xlink" x="0px" y="0px"
	 viewBox="0 0 16 12" style="enable-background:new 0 0 16 12;" xml:space="preserve">
<style type="text/css">
	.st0{fill-rule:evenodd;clip-rule:evenodd;fill:none;}
	.st1{fill-rule:evenodd;clip-rule:evenodd;fill:#999;}
</style>
<g>
	<rect x="0" y="0.1" class="st0" width="16" height="12"/>
	<g id="Group-7" transform="translate(2.000000, 1.000000)">
		<path id="Fill-1" class="st1" d="M10.8,0.7H3.6l1.2,1.2h5.4c0.3,0,0.6,0.3,0.6,0.6v4.8c0,0.2-0.1,0.3-0.2,0.4l1,1
			C11.9,8.6,12,8.3,12,7.9v-6C12,1.3,11.5,0.7,10.8,0.7"/>
		<path id="Fill-3" class="st1" d="M7.2,7.9H1.8c-0.3,0-0.6-0.3-0.6-0.6V2.5c0-0.2,0.1-0.3,0.2-0.4l-1-1C0.1,1.3,0,1.6,0,1.9v6
			c0,0.7,0.5,1.2,1.2,1.2h7.2L7.2,7.9z"/>
		<path id="Fill-5" class="st1" d="M11.2,10.1c-0.2,0.2-0.5,0.2-0.6,0L0.8,0.4c-0.2-0.2-0.2-0.5,0-0.6s0.5-0.2,0.6,0l9.8,9.8
			C11.4,9.7,11.4,10,11.2,10.1"/>
	</g>
</g>
</svg>
