<?xml version="1.0" standalone="no"?><!DOCTYPE svg PUBLIC "-//W3C//DTD SVG 1.1//EN" "http://www.w3.org/Graphics/SVG/1.1/DTD/svg11.dtd"><svg t="1555315278558" class="icon" style="" viewBox="0 0 2274 1024" version="1.1" xmlns="http://www.w3.org/2000/svg" p-id="1457" xmlns:xlink="http://www.w3.org/1999/xlink" width="444.140625" height="200"><defs><style type="text/css"></style></defs><path d="M974.33600033 741.86666634h-31.58400066a15.45599967 15.45599967 0 0 1-13.88799956-8.51199989l-15.45599967-26.65599989a15.45599967 15.45599967 0 0 1 0-15.68000011l15.45599967-27.10399978a15.68000011 15.68000011 0 0 1 13.88799956-8.28800044h31.58400066a15.45599967 15.45599967 0 0 1 13.66400011 8.28800044l15.23199923 26.65599989a17.02399978 17.02399978 0 0 1 2.46399989 8.064 25.08799978 25.08799978 0 0 1-2.016 8.064l-15.67999912 26.88000033a15.23200022 15.23200022 0 0 1-13.66400011 8.28799945z m-175.392 0h-172.48000022a86.24000011 86.24000011 0 0 1-75.93599967-44.79999989l-35.16800077-60.70399945 49.72800066-86.46400055 18.144 31.58400066 26.43199945 45.91999912A55.10400033 55.10400033 0 0 0 657.59999989 656.29866656h109.31199989A55.10400033 55.10400033 0 0 0 814.4 628.07466656l53.98400011-93.85600022a54.432 54.432 0 0 0 0-55.32799978L814.4 386.378667a54.87999989 54.87999989 0 0 0-48.15999956-28.89600033H657.59999989a55.10400033 55.10400033 0 0 0-48.384 28.67199989c-53.98400011 94.07999967-54.65600044 94.97600044-180.54400022 311.80799967a87.58399978 87.58399978 0 0 1-75.71199923 44.80000088H180.70399967a86.91200044 86.91200044 0 0 1-75.93599967-44.80000088L19.87199956 551.01866667a86.46399956 86.46399956 0 0 1 0-87.58399978L104.54399956 316.26666689a86.46399956 86.46399956 0 0 1 76.16000011-44.79999989h172.48000022a86.91200044 86.91200044 0 0 1 76.38400055 44.79999989l35.16799978 61.15199934-49.95200011 85.79200022-44.79999989-77.50399978A55.55200022 55.55200022 0 0 0 321.60000022 356.81066634H212.28800033A55.32799978 55.32799978 0 0 0 164.80000011 385.48266623l-53.75999967 93.85600022a56.00000011 56.00000011 0 0 0 0 55.55200022l26.65599989 46.59200044L164.80000011 627.40266623a53.98400011 53.98400011 0 0 0 48.15999956 28.67200088H321.60000022a53.53600022 53.53600022 0 0 0 44.79999989-24.41600044L549.85600011 316.26666689a87.13599989 87.13599989 0 0 1 76.608-44.79999989h172.48000022a87.13599989 87.13599989 0 0 1 76.16000011 44.79999989l83.99999967 145.59999989a87.36000033 87.36000033 0 0 1 0 87.58399978L874.65599956 697.06666645a86.688 86.688 0 0 1-75.71199923 44.79999989z m-515.20000022-192.86399967h-31.36000022a14.78400033 14.78400033 0 0 1-13.88799956-8.28800044l-15.45600066-26.65599989a14.55999989 14.55999989 0 0 1-2.23999945-8.064 12.99199978 12.99199978 0 0 1 2.016-7.61600011l15.68000011-25.31199923a14.78400033 14.78400033 0 0 1 13.88799956-8.28800044h31.58399967a15.23200022 15.23200022 0 0 1 13.88800055 8.28800044l15.23200022 26.65599989a19.71200011 19.71200011 0 0 1 2.23999945 8.064 25.08799978 25.08799978 0 0 1-2.016 8.064l-15.45599967 26.87999934a15.45599967 15.45599967 0 0 1-13.88800055 6.94400077zM1125.75999978 271.466667a28.67199989 28.67199989 0 0 1 28.67199989 28.67199989V719.46666689a28.67199989 28.67199989 0 0 1-28.44799945 28.89599934 28.89600033 28.89600033 0 0 1-29.11999978-28.89599934V299.24266711A29.11999978 29.11999978 0 0 1 1125.75999978 271.466667zM1545.31200022 325.898667h58.23999956a22.40000044 22.40000044 0 0 1 17.69600011 8.73599934 32.70399989 32.70399989 0 0 1 7.39199967 22.40000044v266.55999989h74.14400011V336.20266645A67.20000033 67.20000033 0 0 0 1688.00000033 293.86666645a44.79999989 44.79999989 0 0 0-36.06400055-17.91999956h-106.62399956z" fill="#1593FF" p-id="1458"></path><path d="M1665.59999989 692.58666656a16.57599989 16.57599989 0 0 1-12.31999945-6.49599989 24.86400033 24.86400033 0 0 1-4.25600044-14.112v-27.77600011h-54.87999989l22.39999945-29.56799967V383.46666623h-70.56v208.76800022l-20.60799989 27.77600011V275.27466656h-67.19999934v347.64799978h67.19999934l-89.59999978 118.944h88.48000055l55.99999912-79.51999978v8.51199989a82.656 82.656 0 0 0 4.92800077 28.44800044 74.36799956 74.36799956 0 0 0 12.76799934 22.39999945 64.95999989 64.95999989 0 0 0 18.144 15.00800077 44.79999989 44.79999989 0 0 0 22.40000044 5.15199923h80.64v-49.27999978z" fill="#1593FF" p-id="1459"></path><path d="M1415.39200044 460.74666656H1374.40000011l61.37599978-134.17600022H1363.19999989v-51.51999923h-77.95199967v51.51999923h-40.54400044v63.84000066h83.77600022l-96.09599967 203.39199956h64.06400011v148.51199967h68.31999956V510.47466623l23.51999967 120.06400022h60.70400044l-33.59999967-169.79199989zM1950.52800022 359.49866667h49.50400022v-45.24799978l-49.50400022 0.67199934v-40.54399945h-63.61600022v138.65600011h-30.24v-114.24000066h-63.61600022v114.24000066h-19.03999978v51.07199934h88.92800044v157.47200044h63.39199978V464.10666623h79.51999978v-51.07199934h-55.32799978v-53.53600022z" fill="#1593FF" p-id="1460"></path><path d="M1788.35200044 482.69866711l-14.33600044 120.06399923h63.39199978l14.33600044-120.06399923h-63.39199978z" fill="#1593FF" p-id="1461"></path><path d="M1942.46400022 640.17066656l-168.44800022 34.94400033v66.528l231.84-56.89599989v-202.04799989h-63.39199978v157.47199945zM2162.20800022 623.37066623V464.10666623h-63.39199978v147.84000033l-79.07200088 129.69600033h66.75200044l75.71200022-118.27200066zM2169.37600044 647.33866678l-20.38400044 31.58399967 32.92800033 62.72000044h61.82399967l-49.50400022-94.30400011h-24.86399934z" fill="#1593FF" p-id="1462"></path><path d="M2243.744 319.40266711v-44.80000088H2017.72799956v44.80000088h81.53600077l-14.33600044 59.58399923h-67.20000033v256.032h63.39200077v-211.00799967h86.91199945a10.52799989 10.52799989 0 0 1 8.51199989 4.25600044 15.68000011 15.68000011 0 0 1 3.58400011 10.75199934v195.99999989h63.61600022v-211.00799967a49.72799967 49.72799967 0 0 0-10.75200033-31.80800011 32.256 32.256 0 0 0-25.98399956-13.21600022h-58.68800044l14.33600044-59.58399923z" fill="#1593FF" p-id="1463"></path></svg>