<svg xmlns="http://www.w3.org/2000/svg" viewBox="0 0 140 40"><defs><style>.cls-1{fill:#fff;}.cls-2,.cls-3{fill:#1bc7b1;}.cls-3{font-size:14px;font-family:PingFangSC-Regular-GBpc-EUC-H, PingFang SC;}</style></defs><title>应聘戳这里-5</title><g id="图层_3" data-name="图层 3"><rect class="cls-1" width="140" height="40" rx="20"/><path class="cls-2" d="M24.23,22.17l-2,6.11a0,0,0,0,0,0,0l2.06,2.06,2-2.06a0,0,0,0,0,0,0l-2-6.11A0,0,0,0,0,24.23,22.17Z" transform="translate(0 0)"/><path class="cls-2" d="M40.43,0h-20a20,20,0,0,0,0,40h20L51.36,20ZM24.26,7.91a6,6,0,0,1,6,6A6.16,6.16,0,0,1,24.23,20a6,6,0,0,1,0-12.09Zm1.48,24.18H22.19c-8.66,0-10.66-5-3.83-10.29a8.63,8.63,0,0,1,4-1.65s0,0,0,0l1.89,1.89h0l1.9-1.9a8.62,8.62,0,0,1,4,1.65C37,27.11,35,32.09,25.74,32.09Z" transform="translate(0 0)"/><text class="cls-3" transform="translate(57.76 23.91)">应聘戳这里</text></g></svg>