<?xml version="1.0" encoding="UTF-8"?>
<svg width="141px" height="46px" viewBox="0 0 141 46" version="1.1" xmlns="http://www.w3.org/2000/svg" xmlns:xlink="http://www.w3.org/1999/xlink">
    <!-- Generator: Sketch 61.2 (89653) - https://sketch.com -->
    <title>我要应聘</title>
    <desc>Created with Sketch.</desc>
    <defs>
        <path d="M1.44782927,0.398076923 C0.652039024,0.398076923 0,1.05369231 0,1.85538462 L0,1.85538462 L0,43.0213846 C0,43.8223846 0.652039024,44.478 1.44782927,44.478 L1.44782927,44.478 L138.979229,44.478 C139.77502,44.478 140.426371,43.8223846 140.426371,43.0213846 L140.426371,43.0213846 L140.426371,1.85538462 C140.426371,1.05369231 139.77502,0.398076923 138.979229,0.398076923 L138.979229,0.398076923 L1.44782927,0.398076923 Z" id="path-1"></path>
        <linearGradient x1="50.0001458%" y1="100%" x2="50.0001458%" y2="0.000782773947%" id="linearGradient-3">
            <stop stop-color="#E6E6E8" offset="0%"></stop>
            <stop stop-color="#D1D3D4" offset="100%"></stop>
        </linearGradient>
        <path d="M0.762068966,0.428634921 C0.362068966,0.428634921 0.035862069,0.75147619 0.035862069,1.14666667 L0.035862069,1.14666667 L0.035862069,41.7318413 C0.035862069,42.1270317 0.362068966,42.449873 0.762068966,42.449873 L0.762068966,42.449873 L138.663448,42.449873 C139.063448,42.449873 139.389655,42.1270317 139.389655,41.7318413 L139.389655,41.7318413 L139.389655,1.14666667 C139.389655,0.75147619 139.063448,0.428634921 138.663448,0.428634921 L138.663448,0.428634921 L0.762068966,0.428634921 Z" id="path-4"></path>
        <linearGradient x1="49.9998961%" y1="13.2311713%" x2="49.9998961%" y2="111.586491%" id="linearGradient-6">
            <stop stop-color="#E6E6E8" offset="0%"></stop>
            <stop stop-color="#D1D3D4" offset="100%"></stop>
        </linearGradient>
        <path d="M0.180681818,0.398076923 L0.180681818,44.478 L42.9968182,44.478 C43.7856818,44.478 44.4313636,43.8223846 44.4313636,43.0213846 L44.4313636,43.0213846 L44.4313636,1.85538462 C44.4313636,1.05369231 43.7856818,0.398076923 42.9968182,0.398076923 L42.9968182,0.398076923 L0.180681818,0.398076923 Z" id="path-7"></path>
        <radialGradient cx="104.054756%" cy="133.057641%" fx="104.054756%" fy="133.057641%" r="197.707744%" gradientTransform="translate(1.040548,1.330576),scale(0.996141,1.000000),rotate(-131.199543),translate(-1.040548,-1.330576)" id="radialGradient-9">
            <stop stop-color="#59CCAC" offset="0%"></stop>
            <stop stop-color="#6E99FD" offset="100%"></stop>
        </radialGradient>
        <path d="M0,0 L0,44 L42.2789624,44 C42.6761151,44 43,43.6619563 43,43.2481564 L43,43.2481564 L43,0.75184355 C43,0.338043725 42.6761151,0 42.2789624,0 L42.2789624,0 L0,0 Z" id="path-10"></path>
        <radialGradient cx="2.79746214%" cy="6.41010883%" fx="2.79746214%" fy="6.41010883%" r="163.600843%" gradientTransform="translate(0.027975,0.064101),scale(1.000000,0.977273),rotate(46.861100),translate(-0.027975,-0.064101)" id="radialGradient-12">
            <stop stop-color="#5EEAC3" offset="0%"></stop>
            <stop stop-color="#3B72F3" offset="100%"></stop>
        </radialGradient>
        <polygon id="path-13" points="0 0.398769231 140 0.398769231 140 44.4897692 0 44.4897692"></polygon>
    </defs>
    <g id="组件优化" stroke="none" stroke-width="1" fill="none" fill-rule="evenodd">
        <g id="组件按钮样式" transform="translate(-450.000000, -410.000000)">
            <g id="我要应聘" transform="translate(450.000000, 410.000000)">
                <path d="M1.44274757,46 L138.556567,46 C139.353369,46 140,45.3490286 140,44.5460257 L140,3.45535644 C140,2.6509714 139.353369,2 138.556567,2 L1.44274757,2 C0.645944966,2 0,2.6509714 0,3.45535644 L0,44.5460257 C0,45.3490286 0.645944966,46 1.44274757,46" id="Fill-1" fill="#B7BBBC"></path>
                <g id="编组">
                    <mask id="mask-2" fill="white">
                        <use xlink:href="#path-1"></use>
                    </mask>
                    <g id="Clip-4"></g>
                    <path d="M1.44782927,0.398076923 C0.652039024,0.398076923 0,1.05369231 0,1.85538462 L0,1.85538462 L0,43.0213846 C0,43.8223846 0.652039024,44.478 1.44782927,44.478 L1.44782927,44.478 L138.979229,44.478 C139.77502,44.478 140.426371,43.8223846 140.426371,43.0213846 L140.426371,43.0213846 L140.426371,1.85538462 C140.426371,1.05369231 139.77502,0.398076923 138.979229,0.398076923 L138.979229,0.398076923 L1.44782927,0.398076923 Z" id="Fill-3" fill="url(#linearGradient-3)" mask="url(#mask-2)"></path>
                </g>
                <g id="编组" transform="translate(0.000000, 1.000000)">
                    <mask id="mask-5" fill="white">
                        <use xlink:href="#path-4"></use>
                    </mask>
                    <g id="Clip-6"></g>
                    <path d="M0.762068966,0.428634921 C0.362068966,0.428634921 0.035862069,0.75147619 0.035862069,1.14666667 L0.035862069,1.14666667 L0.035862069,41.7318413 C0.035862069,42.1270317 0.362068966,42.449873 0.762068966,42.449873 L0.762068966,42.449873 L138.663448,42.449873 C139.063448,42.449873 139.389655,42.1270317 139.389655,41.7318413 L139.389655,41.7318413 L139.389655,1.14666667 C139.389655,0.75147619 139.063448,0.428634921 138.663448,0.428634921 L138.663448,0.428634921 L0.762068966,0.428634921 Z" id="Fill-5" fill="url(#linearGradient-6)" mask="url(#mask-5)"></path>
                </g>
                <g id="编组" transform="translate(96.000000, 0.000000)">
                    <mask id="mask-8" fill="white">
                        <use xlink:href="#path-7"></use>
                    </mask>
                    <g id="Clip-8"></g>
                    <path d="M0.180681818,0.398076923 L0.180681818,44.478 L42.9968182,44.478 C43.7856818,44.478 44.4313636,43.8223846 44.4313636,43.0213846 L44.4313636,43.0213846 L44.4313636,1.85538462 C44.4313636,1.05369231 43.7856818,0.398076923 42.9968182,0.398076923 L42.9968182,0.398076923 L0.180681818,0.398076923 Z" id="Fill-7" fill="url(#radialGradient-9)" mask="url(#mask-8)"></path>
                </g>
                <g id="编组" transform="translate(96.000000, 1.000000)">
                    <mask id="mask-11" fill="white">
                        <use xlink:href="#path-10"></use>
                    </mask>
                    <g id="Clip-10"></g>
                    <path d="M0,0 L0,44 L42.2789624,44 C42.6761151,44 43,43.6619563 43,43.2481564 L43,43.2481564 L43,0.75184355 C43,0.338043725 42.6761151,0 42.2789624,0 L42.2789624,0 L0,0 Z" id="Fill-9" fill="url(#radialGradient-12)" mask="url(#mask-11)"></path>
                </g>
                <g id="编组">
                    <mask id="mask-14" fill="white">
                        <use xlink:href="#path-13"></use>
                    </mask>
                    <g id="Clip-12"></g>
                    <polygon id="Fill-11" fill="#D1D3D4" mask="url(#mask-14)" points="94.2689655 44.4897692 95.3551724 44.4897692 95.3551724 0.398076923 94.2689655 0.398076923"></polygon>
                    <polygon id="Fill-15" fill="#FFFFFF" mask="url(#mask-14)" points="115.875034 16.6221692 115.875034 20.0124 119.015724 23.5279385 115.875034 27.0434769 115.875034 30.4454769 122.053655 23.5279385"></polygon>
                </g>
                <text font-family="PingFangSC-Regular, PingFang SC" font-size="15" font-weight="normal" letter-spacing="0.00833333333" fill="#1C1C1C">
                    <tspan x="15" y="29">我要应聘</tspan>
                </text>
            </g>
        </g>
    </g>
</svg>