<svg data-name="图层 1"><path d="M122 24.42a4 4 0 112.71-6.93L140 0H20A20 20 0 000 20a20 20 0 0020 20h120l-14.92-17.07a4 4 0 01-3.08 1.49zm-10 0a4 4 0 114-4 4 4 0 01-4 4z" fill="#1bc7b1"/><text transform="translate(44.2 24.42)" style="isolation:isolate" fill="#fff" font-size="14" font-family="PingFangSC-Regular-GBpc-EUC-H,PingFang SC">立即购买</text><path d="M21.29 3a17 17 0 1017 17 17 17 0 00-17-17zM19.1 28.89a1.61 1.61 0 01-.39.57 1.74 1.74 0 01-.58.39 1.69 1.69 0 01-.7.15 1.72 1.72 0 01-.72-.15 1.81 1.81 0 01-.57-.39 1.61 1.61 0 01-.39-.57 1.85 1.85 0 010-1.41 1.61 1.61 0 01.39-.57 1.78 1.78 0 01.57-.38 1.89 1.89 0 01.72-.14 1.86 1.86 0 01.7.14 1.72 1.72 0 01.58.38 1.61 1.61 0 01.39.57 1.85 1.85 0 010 1.41zm8.13 0a1.61 1.61 0 01-.39.57 1.65 1.65 0 01-.58.39 1.79 1.79 0 01-.72.15 1.69 1.69 0 01-.7-.15 1.87 1.87 0 01-1-1 1.73 1.73 0 010-1.41 1.61 1.61 0 01.39-.57 1.59 1.59 0 01.57-.38 1.68 1.68 0 01.7-.14 1.78 1.78 0 01.72.14 1.78 1.78 0 011 .95 1.73 1.73 0 010 1.41zm2.92-12.2l-.24.72-.42 1.2c-.16.44-.31.87-.46 1.3s-.27.77-.34 1a2.18 2.18 0 01-.69 1.14 1.52 1.52 0 01-.95.3H16.84l.29 1.76H27c.62 0 .94.26.94.8a1.23 1.23 0 01-.19.67.81.81 0 01-.73.28H16.76a1.18 1.18 0 01-.65-.17 1.49 1.49 0 01-.44-.46 2.5 2.5 0 01-.28-.62 4.14 4.14 0 01-.17-.62c0-.08-.05-.27-.11-.57s-.13-.67-.21-1.12-.18-.95-.28-1.5-.21-1.11-.32-1.67c-.24-1.31-.52-2.78-.84-4.39H12a.79.79 0 01-.49-.15 1.07 1.07 0 01-.32-.35 1.7 1.7 0 01-.19-.44 2.22 2.22 0 010-.43.83.83 0 01.26-.64 1 1 0 01.71-.25h2a1.42 1.42 0 01.63.11 1.11 1.11 0 01.37.3 1.09 1.09 0 01.19.37l.1.33a4.05 4.05 0 01.08.44c0 .19.05.38.08.57s.08.48.11.74h13.29a1.93 1.93 0 01.85.15 1 1 0 01.43.36.76.76 0 01.12.46 1.67 1.67 0 01-.07.42z" fill="#fff"/></svg>