<?xml version="1.0" encoding="UTF-8"?>
<svg width="141px" height="42px" viewBox="0 0 141 42" version="1.1" xmlns="http://www.w3.org/2000/svg" xmlns:xlink="http://www.w3.org/1999/xlink">
    <!-- Generator: Sketch 61.2 (89653) - https://sketch.com -->
    <title>立即购买</title>
    <desc>Created with Sketch.</desc>
    <defs>
        <path d="M8.28774384,0.42757377 C3.7180936,0.42757377 0,4.32737705 0,9.12295082 L0,9.12295082 L0,33.3039344 C0,38.0995082 3.7180936,42 8.28774384,42 L8.28774384,42 L132.668498,42 C137.238148,42 140.955547,38.0995082 140.955547,33.3039344 L140.955547,33.3039344 L140.955547,9.12295082 C140.955547,4.32737705 137.238148,0.42757377 132.668498,0.42757377 L132.668498,0.42757377 L8.28774384,0.42757377 Z" id="path-1"></path>
        <linearGradient x1="50.0003094%" y1="100%" x2="50.0003094%" y2="-0.00060285861%" id="linearGradient-3">
            <stop stop-color="#E6E6E8" offset="0%"></stop>
            <stop stop-color="#BCBDBF" offset="100%"></stop>
        </linearGradient>
        <path d="M8.28774384,0.282758621 C3.77504926,0.282758621 0.0826551724,3.94827586 0.0826551724,8.42965517 L0.0826551724,8.42965517 L0.0826551724,31.3131034 C0.0826551724,35.7937931 3.77504926,39.46 8.28774384,39.46 L8.28774384,39.46 L132.668498,39.46 C137.181887,39.46 140.874281,35.7937931 140.874281,31.3131034 L140.874281,31.3131034 L140.874281,8.42965517 C140.874281,3.94827586 137.181887,0.282758621 132.668498,0.282758621 L132.668498,0.282758621 L8.28774384,0.282758621 Z" id="path-4"></path>
        <path d="M8.28774384,0.200689655 C3.7180936,0.200689655 0,3.89172414 0,8.42965517 L0,8.42965517 L0,31.3131034 C0,35.8503448 3.7180936,39.542069 8.28774384,39.542069 L8.28774384,39.542069 L132.668498,39.542069 C137.238148,39.542069 140.955547,35.8503448 140.955547,31.3131034 L140.955547,31.3131034 L140.955547,8.42965517 C140.955547,3.89172414 137.238148,0.200689655 132.668498,0.200689655 L132.668498,0.200689655 L8.28774384,0.200689655 Z M0.164615764,31.3131034 L0.164615764,8.42965517 C0.164615764,3.98206897 3.80838916,0.363448276 8.28774384,0.363448276 L8.28774384,0.363448276 L132.668498,0.363448276 C137.148547,0.363448276 140.79232,3.98206897 140.79232,8.42965517 L140.79232,8.42965517 L140.79232,31.3131034 C140.79232,35.76 137.148547,39.3786207 132.668498,39.3786207 L132.668498,39.3786207 L8.28774384,39.3786207 C3.80838916,39.3786207 0.164615764,35.76 0.164615764,31.3131034 L0.164615764,31.3131034 Z" id="path-6"></path>
        <linearGradient x1="50.0003094%" y1="99.9997621%" x2="50.0003094%" y2="0.000487509861%" id="linearGradient-8">
            <stop stop-color="#FFFFFF" offset="0%"></stop>
            <stop stop-color="#BCBDBF" offset="100%"></stop>
        </linearGradient>
        <path d="M8.28774384,0.282758621 C3.77504926,0.282758621 0.0826551724,3.94827586 0.0826551724,8.42965517 L0.0826551724,8.42965517 L0.0826551724,31.3131034 C0.0826551724,35.7937931 3.77504926,39.46 8.28774384,39.46 L8.28774384,39.46 L132.668498,39.46 C137.181887,39.46 140.874281,35.7937931 140.874281,31.3131034 L140.874281,31.3131034 L140.874281,8.42965517 C140.874281,3.94827586 137.181887,0.282758621 132.668498,0.282758621 L132.668498,0.282758621 L8.28774384,0.282758621 Z" id="path-9"></path>
        <path d="M8.28774384,0.200689655 C3.7180936,0.200689655 0,3.89172414 0,8.42965517 L0,8.42965517 L0,31.3131034 C0,35.8503448 3.7180936,39.542069 8.28774384,39.542069 L8.28774384,39.542069 L132.668498,39.542069 C137.238148,39.542069 140.955547,35.8503448 140.955547,31.3131034 L140.955547,31.3131034 L140.955547,8.42965517 C140.955547,3.89172414 137.238148,0.200689655 132.668498,0.200689655 L132.668498,0.200689655 L8.28774384,0.200689655 Z M0.164615764,31.3131034 L0.164615764,8.42965517 C0.164615764,3.98206897 3.80838916,0.363448276 8.28774384,0.363448276 L8.28774384,0.363448276 L132.668498,0.363448276 C137.148547,0.363448276 140.79232,3.98206897 140.79232,8.42965517 L140.79232,8.42965517 L140.79232,31.3131034 C140.79232,35.76 137.148547,39.3786207 132.668498,39.3786207 L132.668498,39.3786207 L8.28774384,39.3786207 C3.80838916,39.3786207 0.164615764,35.76 0.164615764,31.3131034 L0.164615764,31.3131034 Z" id="path-11"></path>
        <polygon id="path-13" points="9.4145 0.2037 0.216464286 0.2037 2.46864286 34.3175 9.4145 20.1565 16.359 34.3175 18.6118571 0.2037"></polygon>
    </defs>
    <g id="组件优化" stroke="none" stroke-width="1" fill="none" fill-rule="evenodd">
        <g id="组件按钮样式" transform="translate(-644.000000, -410.000000)">
            <g id="立即购买" transform="translate(644.000000, 410.000000)">
                <g id="编组">
                    <mask id="mask-2" fill="white">
                        <use xlink:href="#path-1"></use>
                    </mask>
                    <g id="Clip-2"></g>
                    <path d="M8.28774384,0.42757377 C3.7180936,0.42757377 0,4.32737705 0,9.12295082 L0,9.12295082 L0,33.3039344 C0,38.0995082 3.7180936,42 8.28774384,42 L8.28774384,42 L132.668498,42 C137.238148,42 140.955547,38.0995082 140.955547,33.3039344 L140.955547,33.3039344 L140.955547,9.12295082 C140.955547,4.32737705 137.238148,0.42757377 132.668498,0.42757377 L132.668498,0.42757377 L8.28774384,0.42757377 Z" id="Fill-1" fill="url(#linearGradient-3)" mask="url(#mask-2)"></path>
                </g>
                <g id="编组" transform="translate(0.000000, 2.000000)">
                    <mask id="mask-5" fill="white">
                        <use xlink:href="#path-4"></use>
                    </mask>
                    <g id="Clip-4"></g>
                    <path d="M8.28774384,0.282758621 C3.77504926,0.282758621 0.0826551724,3.94827586 0.0826551724,8.42965517 L0.0826551724,8.42965517 L0.0826551724,31.3131034 C0.0826551724,35.7937931 3.77504926,39.46 8.28774384,39.46 L8.28774384,39.46 L132.668498,39.46 C137.181887,39.46 140.874281,35.7937931 140.874281,31.3131034 L140.874281,31.3131034 L140.874281,8.42965517 C140.874281,3.94827586 137.181887,0.282758621 132.668498,0.282758621 L132.668498,0.282758621 L8.28774384,0.282758621 Z" id="Fill-3" mask="url(#mask-5)"></path>
                </g>
                <g id="编组" transform="translate(0.000000, 2.000000)">
                    <mask id="mask-7" fill="white">
                        <use xlink:href="#path-6"></use>
                    </mask>
                    <g id="Clip-6"></g>
                    <path d="M8.28774384,0.200689655 C3.7180936,0.200689655 0,3.89172414 0,8.42965517 L0,8.42965517 L0,31.3131034 C0,35.8503448 3.7180936,39.542069 8.28774384,39.542069 L8.28774384,39.542069 L132.668498,39.542069 C137.238148,39.542069 140.955547,35.8503448 140.955547,31.3131034 L140.955547,31.3131034 L140.955547,8.42965517 C140.955547,3.89172414 137.238148,0.200689655 132.668498,0.200689655 L132.668498,0.200689655 L8.28774384,0.200689655 Z M0.164615764,31.3131034 L0.164615764,8.42965517 C0.164615764,3.98206897 3.80838916,0.363448276 8.28774384,0.363448276 L8.28774384,0.363448276 L132.668498,0.363448276 C137.148547,0.363448276 140.79232,3.98206897 140.79232,8.42965517 L140.79232,8.42965517 L140.79232,31.3131034 C140.79232,35.76 137.148547,39.3786207 132.668498,39.3786207 L132.668498,39.3786207 L8.28774384,39.3786207 C3.80838916,39.3786207 0.164615764,35.76 0.164615764,31.3131034 L0.164615764,31.3131034 Z" id="Fill-5" fill="url(#linearGradient-8)" mask="url(#mask-7)"></path>
                </g>
                <g id="编组" transform="translate(0.000000, 2.000000)">
                    <mask id="mask-10" fill="white">
                        <use xlink:href="#path-9"></use>
                    </mask>
                    <g id="Clip-8"></g>
                    <path d="M8.28774384,0.282758621 C3.77504926,0.282758621 0.0826551724,3.94827586 0.0826551724,8.42965517 L0.0826551724,8.42965517 L0.0826551724,31.3131034 C0.0826551724,35.7937931 3.77504926,39.46 8.28774384,39.46 L8.28774384,39.46 L132.668498,39.46 C137.181887,39.46 140.874281,35.7937931 140.874281,31.3131034 L140.874281,31.3131034 L140.874281,8.42965517 C140.874281,3.94827586 137.181887,0.282758621 132.668498,0.282758621 L132.668498,0.282758621 L8.28774384,0.282758621 Z" id="Fill-7" mask="url(#mask-10)"></path>
                </g>
                <g id="编组" transform="translate(0.000000, 2.000000)">
                    <mask id="mask-12" fill="white">
                        <use xlink:href="#path-11"></use>
                    </mask>
                    <g id="Clip-10"></g>
                    <path d="M8.28774384,0.200689655 C3.7180936,0.200689655 0,3.89172414 0,8.42965517 L0,8.42965517 L0,31.3131034 C0,35.8503448 3.7180936,39.542069 8.28774384,39.542069 L8.28774384,39.542069 L132.668498,39.542069 C137.238148,39.542069 140.955547,35.8503448 140.955547,31.3131034 L140.955547,31.3131034 L140.955547,8.42965517 C140.955547,3.89172414 137.238148,0.200689655 132.668498,0.200689655 L132.668498,0.200689655 L8.28774384,0.200689655 Z M0.164615764,31.3131034 L0.164615764,8.42965517 C0.164615764,3.98206897 3.80838916,0.363448276 8.28774384,0.363448276 L8.28774384,0.363448276 L132.668498,0.363448276 C137.148547,0.363448276 140.79232,3.98206897 140.79232,8.42965517 L140.79232,8.42965517 L140.79232,31.3131034 C140.79232,35.76 137.148547,39.3786207 132.668498,39.3786207 L132.668498,39.3786207 L8.28774384,39.3786207 C3.80838916,39.3786207 0.164615764,35.76 0.164615764,31.3131034 L0.164615764,31.3131034 Z" id="Fill-9" fill="url(#linearGradient-8)" mask="url(#mask-12)"></path>
                </g>
                <g id="编组" transform="translate(112.000000, 1.000000)">
                    <mask id="mask-14" fill="white">
                        <use xlink:href="#path-13"></use>
                    </mask>
                    <g id="Clip-12"></g>
                    <polygon id="Fill-11" fill="#1593FF" mask="url(#mask-14)" points="9.4145 0.2037 0.216464286 0.2037 2.46864286 34.3175 9.4145 20.1565 16.359 34.3175 18.6118571 0.2037"></polygon>
                </g>
                <path d="M112.175675,2.16348475 L114.454592,35.3977967 L121.500347,21.5636755 L128.545408,35.3977967 L130.824325,2.16348475 L112.175675,2.16348475 Z M128.668311,36 L121.500347,21.9244456 L114.330994,36 L112,2 L131,2 L130.994445,2.08760575 L128.668311,36 Z" id="Fill-13" fill="#00AEEF"></path>
                <text font-family="PingFangSC-Regular, PingFang SC" font-size="16" font-weight="normal" letter-spacing="2.24888853" fill="#1C1C1C">
                    <tspan x="25" y="26">立即购买</tspan>
                </text>
            </g>
        </g>
    </g>
</svg>