<svg viewBox="0 0 140 40"><rect width="140" height="40" rx="3" fill="#1593ff" data-name="图层 1"/><text transform="translate(51.7 24.4)" style="isolation:isolate" fill="#fff" font-size="14" font-family="PingFangSC-Regular-GBpc-EUC-H,PingFang SC" data-name="图层 2">拨打电话</text><path d="M39.9 22.92l.41-.26a3.55 3.55 0 01.43-.23c.93-.42 1.75-.12 2.84 1.15a2 2 0 01.61 2.11A2.62 2.62 0 0143 26.87l-.52.31c-1.55.95-5.09-1.23-7.64-5s-3.22-7.74-1.65-8.71l.2-.13.23-.14a2.54 2.54 0 011.9-.62A2.28 2.28 0 0137 14c.91 1.71.71 2.52-.46 3.26-.13.09-.27.17-.41.25s.2 1.37 1.33 3 2.1 2.59 2.42 2.4z" fill="#fff" data-name="图层 3"/></svg>