<svg xmlns="http://www.w3.org/2000/svg" viewBox="0 0 140 40"><defs><style>.cls-1{fill:#1593ff;}.cls-2{isolation:isolate;font-size:14px;font-family:PingFangSC-Regular-GBpc-EUC-H, PingFang SC;}.cls-2,.cls-3{fill:#fff;}</style></defs><title>拨打电话组件-1</title><g id="图层_1" data-name="图层 1"><rect class="cls-1" width="140" height="40" rx="3"/></g><g id="图层_2" data-name="图层 2"><text class="cls-2" transform="translate(51.7 24.4)">拨打电话</text></g><g id="图层_3" data-name="图层 3"><path class="cls-3" d="M39.9,22.92l.41-.26a3.55,3.55,0,0,1,.43-.23c.93-.42,1.75-.12,2.84,1.15a2,2,0,0,1,.61,2.11A2.62,2.62,0,0,1,43,26.87l-.52.31c-1.55.95-5.09-1.23-7.64-5s-3.22-7.74-1.65-8.71l.2-.13.23-.14a2.54,2.54,0,0,1,1.9-.62A2.28,2.28,0,0,1,37,14c.91,1.71.71,2.52-.46,3.26-.13.09-.27.17-.41.25s.2,1.37,1.33,3,2.1,2.59,2.42,2.4Z"/></g></svg>