<svg xmlns="http://www.w3.org/2000/svg" viewBox="0 0 140 40.06"><defs><style>.cls-1,.cls-3{fill:#1593ff;}.cls-2{fill:#fff;}.cls-3{font-size:14px;font-family:PingFangSC-Regular-GBpc-EUC-H, PingFang SC;}</style></defs><title>拨打电话组件-2</title><g id="图层_3" data-name="图层 3"><path class="cls-1" d="M32.3,40H19.94A19.94,19.94,0,0,1,0,20.09H0A19.93,19.93,0,0,1,19.94.16H32.3Z" transform="translate(0 0.03)"/></g><g id="图层_4" data-name="图层 4"><path class="cls-2" d="M18.77,23l.41-.25a3.06,3.06,0,0,1,.43-.23c.93-.43,1.75-.13,2.84,1.14a2,2,0,0,1,.61,2.11A2.57,2.57,0,0,1,21.83,27s-.42.24-.52.31c-1.55.95-5.09-1.24-7.64-5s-3.22-7.73-1.65-8.7l.2-.13.23-.15a2.55,2.55,0,0,1,1.9-.61,2.26,2.26,0,0,1,1.54,1.35c.91,1.72.71,2.53-.46,3.27l-.41.25c-.29.18.2,1.37,1.33,3s2.1,2.59,2.42,2.4Z" transform="translate(0 0.03)"/><path class="cls-2" d="M118,40H32.3V0H118c12.14,0,22,9,22,20h0C140,31,130.15,40,118,40Z" transform="translate(0 0.03)"/></g><g id="图层_2" data-name="图层 2"><text class="cls-3" transform="translate(55.43 24.4)">立即来电</text></g></svg>