<svg xmlns="http://www.w3.org/2000/svg" viewBox="0 0 140 40"><defs><style>.cls-1,.cls-3{fill:#1593ff;}.cls-2{fill:#fff;}.cls-3{font-size:14px;font-family:PingFangSC-Regular-GBpc-EUC-H, PingFang SC;}</style></defs><title>拨打电话组件-3</title><g id="图层_2" data-name="图层 2"><path class="cls-1" d="M134,40H109.36L90.48,0H134a6,6,0,0,1,6,6V34A6,6,0,0,1,134,40Z" transform="translate(0)"/></g><g id="图层_3" data-name="图层 3"><path class="cls-2" d="M109.36,40H8.54C3.82,40,0,36.64,0,32.5V7.5C0,3.36,3.82,0,8.54,0H90.48Z" transform="translate(0)"/><path class="cls-2" d="M122.6,21.76l.48-.29a4.24,4.24,0,0,1,.49-.27c1.09-.5,2.05-.15,3.31,1.33A2.35,2.35,0,0,1,127.6,25a3.07,3.07,0,0,1-1.43,1.37l-.61.36c-1.8,1.11-5.93-1.43-8.89-5.77s-3.74-9-1.92-10.12l.24-.15.26-.17a3,3,0,0,1,2.21-.72,2.66,2.66,0,0,1,1.8,1.58c1.06,2,.82,2.93-.54,3.79l-.48.3c-.33.2.23,1.59,1.55,3.51s2.44,3,2.81,2.79Z" transform="translate(0)"/></g><g id="图层_4" data-name="图层 4"><text class="cls-3" transform="translate(15 24.71)">联系我们</text></g></svg>