<svg xmlns="http://www.w3.org/2000/svg" viewBox="0 0 140 40"><defs><style>.cls-1,.cls-3{fill:#1593ff;}.cls-2{fill:#fff;}.cls-3{font-size:14px;font-family:PingFangSC-Regular-GBpc-EUC-H, PingFang SC;}</style></defs><title>拨打电话组件-4</title><g id="图层_4" data-name="图层 4"><circle class="cls-1" cx="120" cy="20" r="20"/></g><g id="图层_2" data-name="图层 2"><path class="cls-2" d="M97.65,20a22,22,0,0,1,8.19-17.14H17.08A17.11,17.11,0,0,0,0,20H0A17.11,17.11,0,0,0,17.08,37.14h88.76A22,22,0,0,1,97.65,20Z" transform="translate(0 0)"/><path class="cls-2" d="M121.85,23.39l.48-.29a3.61,3.61,0,0,1,.5-.27c1.08-.5,2-.15,3.31,1.33a2.37,2.37,0,0,1,.71,2.46A3.07,3.07,0,0,1,125.42,28l-.61.36c-1.8,1.11-5.92-1.43-8.89-5.77s-3.74-9-1.92-10.12l.24-.15.26-.17a3,3,0,0,1,2.21-.72,2.66,2.66,0,0,1,1.8,1.58c1.06,2,.83,2.93-.54,3.79l-.48.3c-.33.2.24,1.59,1.55,3.51s2.45,3,2.81,2.79Z" transform="translate(0 0)"/></g><g id="图层_3" data-name="图层 3"><text class="cls-3" transform="translate(22.66 24.99)">联系我们</text></g></svg>